# xmcd
# 
# Track frame offsets:
#     183
#     36430
#     53183
#     66515
#     79983
#     103803
#     125585
#     143788
#     155818
#     166955
# 
# Disc length: 2615
# 
# Revision: 6
# Processed by: cddbd v1.5.2PL0 Copyright (c) Steve Scherf et al.
# Submitted via: BonkEnc v1.0.8
# 
DISCID=960a350a
DTITLE=13th Floor Elevators - Easter Everywhere
DYEAR=1967
DGENRE=Psychedelic Rock
TTITLE0=Slip Inside This House
TTITLE1=Slide Machine
TTITLE2=She Lives (In A Time Of Her Own)
TTITLE3=Nobody To Love
TTITLE4=Baby Blue
TTITLE5=Earthquake
TTITLE6=Dust
TTITLE7=I've Got Levitation
TTITLE8=I Had To Tell You
TTITLE9=Pictures (Leave Your Body Behind)
EXTD=Rerelease from 1979 YEAR: 1967 ID3G: 67
EXTT0=
EXTT1=
EXTT2=
EXTT3=
EXTT4=
EXTT5=
EXTT6=
EXTT7=
EXTT8=
EXTT9=
PLAYORDER=
